<?xml version="1.0" standalone="no"?>
<!DOCTYPE svg PUBLIC "-//W3C//DTD SVG 20010904//EN"
 "http://www.w3.org/TR/2001/REC-SVG-20010904/DTD/svg10.dtd">
<svg version="1.0" xmlns="http://www.w3.org/2000/svg"
 width="688.000000pt" height="688.000000pt" viewBox="0 0 688.000000 688.000000"
 preserveAspectRatio="xMidYMid meet">

<g transform="translate(0.000000,688.000000) scale(0.100000,-0.100000)"
fill="#000000" stroke="none">
<path d="M5941 5254 l-1 -392 -30 -12 c-16 -7 -32 -21 -36 -33 -7 -21 -44 -76
-77 -112 -95 -107 -117 -167 -79 -216 11 -13 49 -68 85 -122 79 -117 72 -26
57 -702 -20 -926 -29 -1228 -37 -1236 -4 -4 -71 -19 -148 -31 l-140 -24 -3
-62 c-3 -58 -4 -62 -27 -62 l-25 0 0 346 c0 337 0 346 -20 351 -16 4 -20 14
-20 48 0 80 17 75 -261 75 l-249 0 0 -44 c0 -57 -8 -76 -31 -76 -18 0 -19 -17
-19 -565 l0 -565 120 0 120 0 2 507 3 508 53 -1 c29 -1 56 -5 60 -9 4 -4 7
-231 6 -506 l-1 -499 617 0 617 0 67 141 c67 139 68 143 77 253 12 148 35 299
54 364 26 87 74 116 90 54 7 -27 7 -27 16 -4 9 23 49 236 68 360 20 129 19
131 -55 201 l-66 63 -26 -24 c-15 -12 -51 -47 -81 -76 -40 -37 -63 -52 -83
-52 -25 0 -28 -4 -28 -32 0 -18 -7 -42 -15 -52 -8 -11 -15 -37 -15 -58 0 -30
-4 -38 -18 -38 -17 0 -20 -12 -25 -112 -4 -62 -7 -257 -7 -433 -1 -228 -4
-315 -11 -302 -6 10 -14 91 -17 180 l-7 162 -152 3 -153 3 0 -123 0 -123 118
-28 c64 -15 122 -27 129 -27 6 0 15 -4 18 -10 7 -11 -23 -131 -36 -145 -14
-14 -10 34 6 80 19 52 14 56 -123 84 -60 12 -114 26 -121 30 -12 8 -23 411
-46 1736 l-7 380 86 125 c47 68 86 130 86 136 0 25 -39 100 -67 129 -46 49
-90 108 -109 147 -10 22 -26 39 -41 42 l-23 6 -1 363 c-1 199 -5 376 -9 392
-4 17 -8 -146 -9 -361z m-91 -575 c0 -5 -7 -9 -15 -9 -15 0 -20 12 -9 23 8 8
24 -1 24 -14z m70 6 c0 -8 -4 -15 -10 -15 -5 0 -10 7 -10 15 0 8 5 15 10 15 6
0 10 -7 10 -15z m80 -1 c0 -17 -22 -14 -28 4 -2 7 3 12 12 12 9 0 16 -7 16
-16z m78 -2 c2 -7 -6 -12 -17 -12 -21 0 -27 11 -14 24 9 9 26 2 31 -12z m-306
-147 c0 -5 -5 -11 -11 -13 -6 -2 -11 4 -11 13 0 9 5 15 11 13 6 -2 11 -8 11
-13z m78 0 c0 -8 -4 -15 -9 -15 -13 0 -22 16 -14 24 11 11 23 6 23 -9z m75 6
c7 -12 -12 -24 -25 -16 -11 7 -4 25 10 25 5 0 11 -4 15 -9z m75 -6 c0 -8 -7
-15 -15 -15 -8 0 -15 7 -15 15 0 8 7 15 15 15 8 0 15 -7 15 -15z m70 0 c0 -8
-4 -15 -10 -15 -5 0 -10 7 -10 15 0 8 5 15 10 15 6 0 10 -7 10 -15z m80 11 c0
-2 -3 -11 -6 -20 -9 -23 -24 -20 -24 4 0 11 7 20 15 20 8 0 15 -2 15 -4z
m-172 -417 c3 -17 -23 -33 -39 -23 -5 3 -9 14 -9 25 0 15 6 20 22 17 13 -2 24
-10 26 -19z m-2 -98 c-4 -6 -16 -11 -27 -11 -21 0 -27 35 -6 43 16 6 41 -18
33 -32z m2 -72 c3 -17 -23 -33 -39 -23 -5 3 -9 14 -9 25 0 15 6 20 22 17 13
-2 24 -10 26 -19z m2 -89 c0 -15 -7 -20 -25 -20 -18 0 -25 5 -25 20 0 15 7 20
25 20 18 0 25 -5 25 -20z m-9 -334 c-16 -19 -41 -10 -41 14 0 24 21 31 39 14
11 -10 12 -16 2 -28z m4 -156 c0 -8 -10 -16 -22 -18 -22 -3 -32 16 -16 32 12
11 38 2 38 -14z m-8 -71 c14 -14 6 -39 -12 -39 -18 0 -28 17 -21 35 6 18 18
19 33 4z m7 -88 c9 -14 -4 -41 -19 -41 -18 0 -28 17 -21 35 6 17 32 20 40 6z
m0 -87 c8 -21 -1 -34 -25 -34 -12 0 -19 7 -19 18 0 34 33 45 44 16z m856 -70
c0 -12 -20 -14 -107 -12 -135 4 -143 21 -13 28 107 6 120 4 120 -16z m-1602
-36 c7 -7 12 -37 12 -84 l0 -74 -60 0 -60 0 0 68 c0 68 10 94 40 105 18 6 50
-1 68 -15z m-164 -50 c-1 -10 -2 -22 -3 -28 0 -5 -12 -10 -26 -10 -21 0 -25 5
-25 31 0 27 3 30 28 27 18 -2 27 -8 26 -20z m290 14 c12 -20 -7 -52 -30 -52
-20 0 -24 5 -24 30 0 25 4 30 24 30 14 0 27 -4 30 -8z m620 -31 c10 -16 -6
-42 -23 -39 -9 2 -17 13 -19 26 -3 16 2 22 17 22 11 0 22 -4 25 -9z m524 -148
c-2 -50 -7 -78 -15 -81 -10 -3 -13 17 -13 77 0 66 3 81 15 81 13 0 15 -13 13
-77z m98 25 c-3 -29 -6 -65 -6 -80 0 -16 -4 -28 -10 -28 -6 0 -10 33 -10 80 0
67 3 80 16 80 14 0 16 -8 10 -52z m94 -28 c0 -47 -4 -80 -10 -80 -6 0 -10 33
-10 80 0 47 4 80 10 80 6 0 10 -33 10 -80z m100 -1 c0 -60 -3 -80 -12 -77 -9
3 -14 31 -16 81 -2 64 0 77 13 77 12 0 15 -15 15 -81z m-1795 -9 c0 -20 -6
-26 -27 -28 -24 -3 -28 0 -28 21 0 30 9 39 35 35 14 -2 20 -10 20 -28z m93 -3
c3 -26 1 -28 -25 -25 -22 2 -29 9 -31 31 -3 26 -1 28 25 25 22 -2 29 -9 31
-31z m242 3 c0 -25 -4 -30 -25 -30 -21 0 -25 5 -25 30 0 25 4 30 25 30 21 0
25 -5 25 -30z m98 3 c-2 -22 -9 -29 -30 -31 -25 -3 -28 0 -28 27 0 28 3 31 31
31 27 0 30 -3 27 -27z m550 -46 c4 -20 -25 -34 -40 -19 -15 15 -1 44 19 40 10
-2 19 -11 21 -21z m-980 -75 c2 -16 -3 -25 -20 -31 -13 -5 -26 -7 -30 -4 -10
5 -10 47 -1 57 15 15 48 1 51 -22z m316 22 c9 -3 16 -17 16 -30 0 -19 -5 -24
-25 -24 -20 0 -25 5 -25 23 0 34 8 41 34 31z m100 0 c9 -3 16 -17 16 -31 0
-21 -4 -24 -27 -21 -31 3 -44 35 -21 49 16 11 13 10 32 3z m-324 -28 c0 -29
-22 -39 -46 -22 -24 18 -11 46 21 46 20 0 25 -5 25 -24z m-95 -126 c0 -18 -6
-26 -23 -28 -24 -4 -38 18 -28 44 3 9 15 14 28 12 17 -2 23 -10 23 -28z m95 0
c0 -25 -4 -30 -25 -30 -27 0 -41 20 -31 45 3 8 17 15 31 15 21 0 25 -5 25 -30z
m235 0 c0 -18 -6 -26 -22 -28 -18 -3 -23 1 -23 21 0 28 9 39 30 35 9 -2 15
-14 15 -28z m103 3 c-3 -32 -44 -46 -54 -19 -10 26 4 46 31 46 23 0 26 -4 23
-27z m-430 -120 c4 -24 -20 -46 -42 -37 -22 8 -21 51 2 57 27 7 37 2 40 -20z
m92 -8 c0 -29 -13 -39 -40 -30 -29 9 -27 52 3 57 30 5 37 1 37 -27z m244 8 c5
-11 1 -22 -11 -30 -24 -18 -37 -11 -41 20 -3 23 0 27 21 27 14 0 28 -7 31 -17z
m96 -8 c0 -21 -5 -25 -30 -25 -25 0 -30 4 -30 25 0 21 5 25 30 25 25 0 30 -4
30 -25z m-430 -119 c0 -26 -20 -39 -45 -30 -15 6 -20 35 -8 47 3 4 17 7 30 7
18 0 23 -6 23 -24z m90 -7 c0 -27 -3 -30 -27 -27 -22 2 -29 9 -31 31 -3 24 0
27 27 27 28 0 31 -3 31 -31z m240 16 c10 -12 10 -18 0 -30 -20 -24 -50 -19
-50 8 0 39 26 50 50 22z m100 -10 c0 -21 -5 -25 -30 -25 -22 0 -30 5 -30 18 0
25 9 32 37 32 18 0 23 -5 23 -25z m-435 -125 c0 -18 -6 -26 -22 -28 -13 -2
-24 1 -24 7 -1 6 -2 17 -3 24 -4 21 5 28 27 25 16 -2 22 -10 22 -28z m93 -2
c3 -25 0 -28 -27 -28 -28 0 -31 3 -31 31 0 27 3 30 28 27 21 -2 28 -9 30 -30z
m246 13 c11 -18 -6 -41 -30 -41 -19 0 -24 5 -24 25 0 20 5 25 24 25 14 0 27
-4 30 -9z m96 -3 c-1 -42 -52 -51 -58 -10 -3 19 1 22 27 22 18 0 31 -5 31 -12z
m-345 -134 c0 -20 -6 -30 -19 -32 -34 -7 -52 52 -18 61 29 8 37 2 37 -29z
m-87 -1 c-2 -20 -9 -29 -25 -31 -20 -3 -23 1 -23 27 0 27 4 31 26 31 22 0 25
-4 22 -27z m335 15 c7 -21 -12 -48 -33 -48 -16 0 -20 7 -20 30 0 25 4 30 24
30 13 0 26 -6 29 -12z m89 -13 c-6 -33 -38 -46 -48 -20 -10 25 4 47 28 43 17
-2 22 -9 20 -23z m-338 -111 c8 -22 -11 -54 -29 -48 -9 4 -15 19 -15 35 0 22
5 29 19 29 10 0 22 -7 25 -16z m244 -16 c3 -24 0 -28 -22 -28 -22 0 -26 4 -26
31 0 26 3 30 23 27 16 -2 23 -11 25 -30z m92 2 c0 -23 -4 -30 -20 -30 -25 0
-36 25 -20 45 21 25 40 18 40 -15z m-420 -4 c0 -25 -15 -36 -37 -29 -7 3 -13
16 -13 29 0 19 5 24 25 24 20 0 25 -5 25 -24z"/>
<path d="M1941 4841 c-15 -16 -51 -82 -81 -147 -29 -66 -84 -181 -122 -257
-68 -137 -79 -179 -47 -185 9 -2 69 50 145 125 123 123 176 164 191 150 3 -4
-1 -41 -10 -82 -22 -98 -21 -121 3 -145 25 -25 33 -25 65 3 23 20 25 25 16 50
-8 21 -8 46 0 90 28 163 24 187 -36 187 -41 0 -110 -46 -184 -120 l-53 -55 25
45 c75 136 146 279 155 312 17 62 -21 78 -67 29z"/>
<path d="M1245 4775 c-66 -7 -152 -13 -191 -14 -57 -1 -74 -5 -89 -21 -10 -11
-15 -26 -11 -35 5 -14 21 -16 106 -13 55 2 100 0 100 -3 0 -4 -14 -40 -31 -80
-118 -281 -133 -331 -101 -348 11 -6 27 -8 36 -5 15 6 46 62 46 84 0 16 70
188 114 280 25 52 43 77 59 82 12 3 66 6 119 7 99 1 128 12 128 46 0 37 -70
42 -285 20z"/>
<path d="M1542 4645 c-119 -55 -236 -213 -237 -317 0 -59 18 -79 76 -85 79 -9
221 62 259 129 23 42 6 44 -57 6 -58 -34 -115 -58 -138 -58 -7 0 -23 8 -36 19
-20 16 -21 21 -10 35 7 9 21 16 30 16 38 0 177 78 218 123 106 115 39 199
-105 132z m73 -55 c3 -5 -1 -20 -10 -32 -20 -29 -124 -98 -148 -98 -18 0 -18
1 0 31 20 34 77 83 114 98 32 13 37 13 44 1z"/>
<path d="M2805 4634 c-77 -40 -180 -130 -221 -191 -39 -59 -64 -128 -56 -153
7 -21 33 -39 57 -40 29 0 136 53 176 88 l34 30 0 -62 c0 -58 1 -61 26 -64 31
-4 91 42 73 55 -32 23 -15 106 46 220 33 61 36 78 18 90 -7 4 -18 17 -24 28
-17 31 -70 31 -129 -1z m61 -68 c9 -23 -26 -78 -88 -138 -57 -55 -143 -107
-155 -94 -23 23 118 191 192 230 38 19 44 19 51 2z"/>
<path d="M4545 4638 c-139 -73 -285 -240 -285 -326 0 -16 9 -37 20 -47 17 -15
25 -16 66 -6 45 12 145 68 158 90 16 25 25 8 19 -34 -10 -74 29 -98 84 -51 24
20 26 26 14 40 -21 25 -8 86 40 187 35 75 41 93 31 107 -7 9 -16 27 -22 40
-13 29 -69 29 -125 0z m55 -73 c0 -62 -152 -215 -225 -227 -63 -10 59 155 161
218 46 27 64 30 64 9z"/>
<path d="M4853 4648 c-16 -20 -118 -256 -138 -319 -10 -31 -15 -64 -12 -73 14
-36 47 -15 130 82 93 108 199 210 204 195 2 -5 -8 -48 -22 -96 -33 -114 -33
-145 0 -153 36 -9 84 25 151 109 79 97 132 152 140 145 3 -4 -3 -48 -15 -98
-26 -113 -26 -132 -1 -155 22 -20 55 -15 90 13 22 18 22 19 6 51 -16 30 -16
38 4 135 25 126 19 156 -33 156 -42 0 -96 -38 -157 -110 -25 -30 -58 -68 -73
-85 -28 -29 -29 -30 -23 -5 39 158 39 160 21 180 -40 44 -108 9 -220 -112
l-66 -73 41 83 c47 96 50 135 9 140 -14 2 -30 -3 -36 -10z"/>
<path d="M2308 4630 c-17 -12 -44 -64 -76 -143 -77 -187 -86 -247 -36 -247 25
0 48 27 105 124 37 63 134 159 193 190 34 18 37 18 54 3 25 -23 37 -21 61 9
32 41 5 84 -55 84 -42 0 -140 -66 -199 -133 -54 -62 -58 -52 -10 27 42 70 46
106 11 106 -13 0 -35 -9 -48 -20z"/>
<path d="M3768 4630 c-187 -76 -362 -274 -302 -341 9 -11 27 -19 39 -19 33 0
135 38 177 65 21 14 38 21 38 17 0 -5 -18 -42 -41 -83 -89 -163 -160 -193
-266 -112 -49 38 -72 39 -84 6 -11 -31 26 -83 81 -111 35 -18 55 -22 92 -18
126 14 204 100 311 341 25 55 61 125 81 155 42 63 43 73 16 100 -26 26 -79 25
-142 0z m52 -81 c0 -31 -118 -145 -182 -174 -66 -31 -78 -31 -78 -3 0 35 127
152 192 177 67 25 68 25 68 0z"/>
<path d="M4052 4640 c-47 -20 -178 -354 -151 -386 6 -8 20 -14 29 -14 21 0 37
20 113 135 50 75 129 151 192 185 22 12 27 11 44 -4 24 -22 53 -14 71 19 11
20 10 28 -4 50 -19 29 -58 33 -109 11 -48 -20 -134 -91 -163 -136 -41 -62 -41
-39 0 36 50 91 42 130 -22 104z"/>
<path d="M3108 4626 c-10 -7 -33 -52 -52 -99 -20 -47 -49 -116 -66 -152 -35
-74 -36 -108 -4 -113 14 -2 32 10 56 40 79 97 224 228 251 228 6 0 7 -22 3
-57 -19 -163 -19 -168 -2 -182 32 -27 136 16 136 56 0 12 -7 14 -30 10 -36 -8
-36 -9 -15 112 18 102 11 137 -31 147 -47 12 -104 -14 -166 -76 -61 -62 -68
-63 -42 -11 9 18 18 50 21 72 5 36 4 39 -18 39 -13 0 -32 -7 -41 -14z"/>
<path d="M5182 3428 c-2 -38 -6 -48 -19 -49 -23 0 -103 -96 -119 -141 -6 -19
-24 -54 -38 -76 -14 -23 -26 -46 -26 -52 0 -6 72 -10 205 -10 228 0 224 -1
180 64 -14 20 -25 41 -25 47 0 33 -94 156 -130 170 -9 3 -17 24 -21 50 l-6 44
-1 -47z"/>
<path d="M3792 3351 c-2 -60 -5 -67 -43 -108 -37 -41 -40 -48 -34 -81 4 -21 9
-74 12 -119 4 -76 3 -82 -17 -93 -19 -10 -21 -17 -16 -53 4 -23 14 -49 22 -58
12 -13 14 -41 12 -135 l-3 -119 -110 0 -110 0 0 223 0 222 -56 0 c-67 0 -69 3
-69 117 0 63 -3 75 -27 104 -15 17 -42 38 -60 45 -18 8 -33 19 -33 24 0 6 -4
10 -10 10 -5 0 -10 -6 -10 -13 0 -7 -15 -18 -33 -25 -19 -7 -44 -24 -58 -38
-21 -23 -24 -36 -27 -125 l-4 -99 -61 0 -62 0 3 -320 3 -320 -51 0 -50 0 0
-175 0 -175 28 -24 c15 -13 73 -62 129 -110 l103 -86 835 0 835 0 0 285 0 285
-120 0 -121 0 3 320 3 319 -60 3 -60 3 -5 99 -5 98 -39 34 c-22 19 -45 34 -52
34 -7 0 -18 8 -24 18 -10 16 -10 16 -20 0 -6 -10 -17 -18 -24 -18 -7 0 -30
-15 -52 -34 l-39 -34 -5 -98 -5 -99 -60 -3 -60 -3 0 -222 0 -222 -106 -3 -106
-3 -7 100 c-7 101 -3 135 20 180 19 35 18 91 0 91 -22 0 -31 84 -17 151 18 87
15 101 -29 144 -37 36 -39 42 -43 104 l-3 66 -2 -64z m-584 -274 c2 -28 0 -37
-13 -37 -20 0 -29 23 -21 56 9 36 30 24 34 -19z m60 0 c2 -28 0 -37 -13 -37
-20 0 -29 23 -21 56 9 36 30 24 34 -19z m60 0 c3 -32 0 -37 -17 -37 -16 0 -21
6 -21 24 0 63 33 74 38 13z m972 -3 c0 -27 -4 -34 -20 -34 -15 0 -20 7 -20 28
0 29 17 55 32 46 4 -3 8 -21 8 -40z m50 37 c0 -5 3 -23 6 -40 6 -27 4 -31 -15
-31 -17 0 -21 6 -21 33 0 19 3 37 7 40 9 10 23 9 23 -2z m68 -34 c3 -32 0 -37
-17 -37 -17 0 -21 6 -21 33 0 61 33 63 38 4z m-583 -7 c7 -23 -10 -60 -30 -60
-32 0 -45 13 -45 46 0 32 2 34 34 34 26 0 36 -5 41 -20z m-405 -195 c0 -30 -3
-55 -7 -55 -5 0 -57 -2 -118 -4 -60 -2 -138 -1 -172 2 l-63 4 0 54 0 54 180 0
180 0 0 -55z m1090 1 l0 -55 -52 -6 c-29 -4 -109 -5 -178 -3 l-125 3 -3 58 -3
57 181 0 180 0 0 -54z m-1117 -135 c26 -1 27 -3 27 -56 l0 -55 -180 0 -180 0
0 53 c0 30 3 57 7 61 4 4 73 5 153 2 80 -3 157 -5 173 -5z m1070 0 l47 -1 0
-55 0 -55 -180 0 -180 0 0 60 0 59 133 -3 c72 -2 153 -4 180 -5z m-1183 -487
c24 -23 25 -29 25 -147 l0 -122 -87 -3 -88 -3 0 121 c0 68 5 130 11 141 13 26
67 50 94 42 11 -3 31 -16 45 -29z m348 30 c22 -6 22 -8 20 -153 l-3 -146 -87
-3 -88 -3 0 150 0 150 33 4 c55 7 101 7 125 1z m242 -149 l0 -155 -90 0 -90 0
0 148 c0 82 2 151 4 153 3 2 43 5 90 6 l86 2 0 -154z m218 -3 l3 -153 -88 3
-88 3 -3 147 c-3 168 -12 155 103 154 l70 -1 3 -153z m303 135 l34 -23 3 -132
3 -133 -88 3 -88 3 0 121 c0 108 2 125 20 144 39 44 70 48 116 17z"/>
<path d="M2010 3050 c-27 -27 -95 -50 -147 -50 l-43 0 0 -268 0 -268 -117
-104 c-212 -189 -496 -444 -548 -492 l-50 -48 978 0 c612 0 977 4 977 10 0 5
-33 37 -74 72 -40 35 -141 124 -223 198 -82 74 -208 188 -281 254 l-133 119 1
231 c0 127 1 246 0 264 0 29 -3 32 -32 32 -42 0 -114 25 -146 50 -35 28 -134
28 -162 0z m-5 -130 c0 -26 -5 -45 -12 -47 -9 -3 -13 10 -13 47 0 37 4 50 13
48 7 -3 12 -22 12 -48z m65 -1 c0 -36 -4 -49 -12 -47 -14 5 -23 61 -14 84 12
31 26 11 26 -37z m65 1 c0 -26 -5 -45 -12 -47 -9 -3 -13 10 -13 47 0 37 4 50
13 48 7 -3 12 -22 12 -48z m65 0 c0 -46 -12 -66 -22 -37 -7 19 3 87 13 87 5 0
9 -22 9 -50z m-44 -532 c65 -44 84 -84 134 -290 34 -139 39 -172 28 -179 -17
-11 -455 -12 -462 0 -6 8 45 217 85 353 16 53 27 72 57 96 80 62 92 64 158 20z
m-511 -398 l-65 -130 -45 0 c-25 0 -45 3 -45 8 0 4 27 39 60 77 32 39 78 93
102 122 24 29 46 52 51 53 4 0 -22 -58 -58 -130z m119 9 c-19 -63 -37 -120
-39 -126 -4 -13 -105 -19 -105 -7 0 13 171 256 177 250 2 -1 -13 -54 -33 -117z
m722 -22 c41 -59 74 -110 74 -113 0 -3 -23 -4 -52 -2 l-52 3 -38 120 c-55 173
-57 173 68 -8z m19 114 c11 -16 58 -73 104 -128 l84 -98 -43 -3 c-23 -2 -46 0
-51 5 -9 10 -129 239 -129 247 0 14 17 3 35 -23z m172 -93 c68 -68 123 -126
123 -130 0 -5 -15 -8 -34 -8 -31 0 -39 7 -82 68 -26 37 -69 95 -96 130 -27 34
-45 62 -41 62 4 0 63 -55 130 -122z m-1234 -12 c-99 -114 -111 -124 -143 -125
l-35 0 40 36 c22 20 67 61 100 92 59 55 136 121 143 121 2 0 -46 -56 -105
-124z m115 29 c-35 -48 -73 -102 -86 -121 -19 -30 -28 -34 -64 -34 l-43 0 125
125 c68 68 126 123 128 121 2 -2 -25 -43 -60 -91z m1173 13 c50 -46 112 -102
137 -125 l47 -42 -32 -1 c-25 0 -40 8 -65 37 -67 75 -172 188 -187 201 -9 7
-10 12 -3 12 7 0 53 -37 103 -82z"/>
<path d="M761 2974 c0 -11 3 -14 6 -6 3 7 2 16 -1 19 -3 4 -6 -2 -5 -13z"/>
<path d="M755 2930 c3 -5 8 -10 11 -10 2 0 4 5 4 10 0 6 -5 10 -11 10 -5 0 -7
-4 -4 -10z"/>
<path d="M677 2902 c-10 -10 -17 -33 -17 -50 l0 -32 -60 0 -60 0 0 -163 c0
-90 -2 -166 -5 -169 -3 -2 -18 -3 -34 0 -25 3 -30 9 -33 36 -2 26 -8 32 -30
34 l-28 3 0 -205 0 -206 153 0 c83 0 190 -1 237 -2 47 -1 104 -1 128 0 l42 2
0 335 0 335 -55 0 -55 0 0 33 c0 20 -8 41 -18 50 -21 19 -57 22 -67 7 -3 -5
-15 -10 -26 -10 -10 0 -19 5 -19 10 0 17 -36 11 -53 -8z m98 -152 c0 -8 -8
-16 -17 -18 -13 -2 -18 3 -18 18 0 15 5 20 18 18 9 -2 17 -10 17 -18z m-77
-83 c2 -12 -3 -17 -17 -17 -12 0 -21 6 -21 13 0 31 32 34 38 4z m152 -3 c0 -8
-9 -14 -20 -14 -22 0 -26 10 -8 28 13 13 28 7 28 -14z m-70 1 c0 -8 -9 -15
-20 -15 -11 0 -20 7 -20 15 0 8 9 15 20 15 11 0 20 -7 20 -15z m-5 -86 c0 -7
-8 -15 -17 -17 -18 -3 -25 18 -11 32 10 10 28 1 28 -15z m-77 -86 c-2 -10 -10
-18 -18 -18 -8 0 -16 8 -18 18 -2 12 3 17 18 17 15 0 20 -5 18 -17z m80 0 c-2
-10 -10 -18 -18 -18 -8 0 -16 8 -18 18 -2 12 3 17 18 17 15 0 20 -5 18 -17z
m72 3 c0 -20 -19 -31 -32 -18 -6 6 -7 15 -4 21 10 16 36 13 36 -3z m-150 -86
c0 -13 -7 -20 -20 -20 -22 0 -28 25 -7 33 22 10 27 7 27 -13z m0 -91 c0 -25
-33 -22 -38 4 -2 12 3 17 17 17 15 0 21 -6 21 -21z m73 15 c9 -10 -4 -34 -19
-34 -8 0 -14 9 -14 20 0 19 19 27 33 14z m77 -15 c0 -25 -33 -22 -38 4 -2 12
3 17 17 17 15 0 21 -6 21 -21z m-150 -85 c0 -8 -6 -14 -14 -14 -18 0 -29 27
-13 33 16 6 27 -1 27 -19z m150 1 c0 -8 -5 -17 -11 -21 -16 -9 -30 18 -17 33
12 15 28 8 28 -12z"/>
<path d="M1177 2864 c-10 -14 -32 -28 -49 -31 -16 -3 -32 -12 -35 -19 -3 -8
-18 -14 -34 -14 l-29 0 0 -350 0 -350 -310 0 -310 0 0 -140 0 -140 313 0 312
1 126 112 c69 62 172 153 230 203 l104 90 -3 57 -4 57 -54 0 -54 0 -2 228 -3
227 -25 3 c-14 2 -29 9 -35 15 -27 32 -88 77 -103 77 -9 0 -25 -12 -35 -26z
m-59 -152 c3 -16 -2 -22 -17 -22 -26 0 -36 17 -20 36 16 19 33 13 37 -14z
m212 -3 c0 -17 -8 -19 -84 -19 -82 0 -103 7 -93 33 3 8 30 11 91 9 77 -3 86
-5 86 -23z m-212 -107 c3 -16 -2 -22 -17 -22 -24 0 -35 15 -27 36 9 23 40 13
44 -14z m207 2 c0 -17 -8 -19 -79 -22 -82 -3 -103 5 -92 33 5 14 19 16 89 13
73 -4 82 -6 82 -24z m-205 -109 c0 -18 -5 -25 -19 -25 -11 0 -23 5 -26 10 -11
18 3 40 25 40 15 0 20 -7 20 -25z m205 0 c0 -19 -6 -20 -85 -19 -79 2 -85 3
-88 23 -3 21 -1 22 85 19 80 -3 88 -5 88 -23z m-205 -104 c0 -26 -17 -36 -35
-21 -23 19 -18 40 10 40 18 0 25 -5 25 -19z m210 0 c0 -25 -5 -27 -100 -23
-71 3 -80 6 -80 23 0 17 8 19 90 19 82 0 90 -2 90 -19z m-212 -109 c3 -18 -1
-22 -22 -22 -19 0 -26 5 -26 18 0 39 43 43 48 4z m175 22 c27 -5 37 -11 37
-25 0 -17 -9 -19 -84 -19 -85 0 -103 7 -92 35 6 16 70 20 139 9z"/>
<path d="M425 1791 c-2 -2 3 -14 12 -27 l15 -24 2988 0 2988 0 16 25 c9 13 16
27 16 31 0 6 -6029 2 -6035 -5z"/>
</g>
</svg>
